PathFileType	4	(X/Y/Z)	c:/Users/goper/Files/vsCode/490R/osim_files/C12/C12_Fast_02.trc
DataRate	CameraRate	NumFrames	NumMarkers	Units                	OrigDataRate	OrigDataStartFrame	OrigNumFrames
120.00	120.00	9	36	mm	120.0	428	1140
                Frame#	Time	LPSIS			LASIS			LTH1			LTH2			LTH3			LTH4			LLFE			LMFE			LSH1			LSH2			LSH3			LSH4			LLMAL			LMMAL			LCAL			LMTP5			LTOE			LMTP1			RPSIS			RASIS			RTH1			RTH2			RTH3			RTH4			RLFE			RMFE			RSH1			RSH2			RSH3			RSH4			RLMAL			RMMAL			RCAL			RMTP1			RTOE			RMTP5		
		X1	Y1	Z1	X2	Y2	Z2	X3	Y3	Z3	X4	Y4	Z4	X5	Y5	Z5	X6	Y6	Z6	X7	Y7	Z7	X8	Y8	Z8	X9	Y9	Z9	X10	Y10	Z10	X11	Y11	Z11	X12	Y12	Z12	X13	Y13	Z13	X14	Y14	Z14	X15	Y15	Z15	X16	Y16	Z16	X17	Y17	Z17	X18	Y18	Z18	X19	Y19	Z19	X20	Y20	Z20	X21	Y21	Z21	X22	Y22	Z22	X23	Y23	Z23	X24	Y24	Z24	X25	Y25	Z25	X26	Y26	Z26	X27	Y27	Z27	X28	Y28	Z28	X29	Y29	Z29	X30	Y30	Z30	X31	Y31	Z31	X32	Y32	Z32	X33	Y33	Z33	X34	Y34	Z34	X35	Y35	Z35	X36	Y36	Z36

428	3.55833	1629.44373	1089.05957	341.80096	1453.83899	1047.36060	401.43900	0.00000	0.00000	0.00000	1470.17395	730.12054	478.80746	1428.60010	790.02692	485.05420	1415.60645	746.48334	487.94983	1376.27368	567.16217	460.17563	1350.75537	558.75964	334.59879	1419.30591	474.04944	469.48978	1451.68250	438.99731	469.28232	1467.00793	510.73676	462.43466	1493.18604	471.36670	466.52808	1638.45337	216.16951	408.26593	1605.98401	208.20015	333.18268	1691.20007	232.86479	352.73404	1580.57446	79.71201	443.34439	1505.52246	77.65797	390.75232	1536.87598	69.32570	342.36786	1638.65564	1087.92273	229.13057	1456.95374	1048.31384	148.80505	0.00000	0.00000	0.00000	0.00000	0.00000	0.00000	1558.70300	760.43073	107.46888	1553.15552	715.85938	116.24288	1544.43958	536.65955	163.39706	1539.42786	543.33594	297.26526	1615.93774	443.46866	151.99345	1618.01599	400.17340	145.42924	1553.31433	432.64005	154.16586	1565.19373	391.77292	147.95462	1615.90588	106.79678	201.60982	1599.29602	123.31883	281.35306	1688.90222	76.56579	241.52730	1479.99512	47.16624	291.98361	1433.91223	66.21046	261.33920	1466.67102	38.37707	186.44223
429	3.56667	1618.13623	1089.02222	342.95660	1442.75757	1047.52136	400.96613	0.00000	0.00000	0.00000	1454.25708	732.05090	479.20837	0.00000	0.00000	0.00000	1399.05737	748.56458	487.68668	1359.04712	569.31476	458.41229	1334.96558	561.41626	333.04547	1399.33923	474.85419	467.87097	1430.09729	438.09213	468.06339	1448.27429	509.00601	460.65112	1472.32898	468.13123	465.03552	1606.58618	206.49112	408.05591	1575.12732	199.87621	333.30801	1660.48901	220.15973	352.33597	1541.77771	74.19922	444.77023	1466.76306	75.48387	392.02411	0.00000	0.00000	0.00000	1628.01123	1088.29004	230.42574	1447.31287	1048.29565	148.52293	0.00000	0.00000	0.00000	1493.53271	713.35443	114.51941	1552.05713	761.21100	107.55389	1547.16187	716.55792	116.36242	0.00000	0.00000	0.00000	1536.22424	543.36627	297.16602	1614.49182	444.30771	151.87851	1616.63403	401.14047	145.44044	1551.77783	433.22687	153.97699	1564.02612	392.60126	147.70419	1615.56689	107.47044	201.39723	1598.55042	124.00839	281.08148	1688.56140	77.49953	241.20120	1480.15442	47.42625	291.78467	1433.66150	65.98008	261.11539	1466.55127	38.18743	186.24754
430	3.57500	1606.32458	1088.38599	344.28580	1430.92786	1047.34790	400.42590	0.00000	0.00000	0.00000	1438.54712	733.49609	479.38605	1397.89709	793.92328	484.01526	1382.66565	750.22589	487.23199	1342.37500	571.12091	456.51794	1319.34729	563.55237	331.33853	1379.60132	475.10410	466.16757	1408.81873	437.12170	466.58032	1430.02759	507.02692	459.03220	1452.46265	465.22809	463.18317	1574.70422	197.29285	407.99890	1541.75317	190.81020	332.81067	1629.01172	207.16678	352.13834	1502.40137	69.08310	446.00449	1427.08740	73.51414	393.46140	0.00000	0.00000	0.00000	1617.31763	1088.38806	231.82002	1437.38391	1048.10596	148.31657	1482.27344	759.52972	107.43468	1487.51660	713.24615	114.82900	1546.58423	762.57794	107.25726	1541.10547	717.18842	116.58214	1545.27502	540.38599	158.93976	1533.31519	543.64270	297.13531	1612.74878	445.25854	151.86436	1614.91748	401.97952	145.40736	1550.08765	433.83630	153.79561	1562.55432	393.27167	147.49471	1615.21106	108.12216	201.14943	1597.89539	124.64986	280.75049	1688.19031	78.39783	240.98808	1479.61475	47.30134	291.56882	1433.37036	65.70741	260.87061	1466.44092	37.96805	186.05501
431	3.58333	1595.41138	1087.82642	345.64194	1419.78918	1046.81104	400.03760	0.00000	0.00000	0.00000	1420.43384	731.76648	481.52826	1383.65857	796.08698	482.98755	1368.08032	752.11920	486.98846	1326.35229	572.54193	454.49969	1304.45544	565.30060	329.56769	1360.44092	474.93420	464.38855	1387.07092	435.86383	465.47052	1412.89734	504.89694	457.34747	1432.86646	462.27704	461.60458	1541.32910	187.25441	408.11234	1508.68335	182.37001	332.79248	1596.81213	194.07603	352.21863	1462.58765	64.12936	447.22961	1387.85559	72.13965	394.43481	1417.14697	57.59033	346.45929	1606.64514	1088.10156	233.42996	1426.62939	1047.92725	148.13751	1475.60522	759.32672	107.76583	0.00000	0.00000	0.00000	1538.68042	762.48859	107.87936	1535.06079	717.76501	116.76921	1542.70947	540.63776	159.08377	1530.23987	543.76886	297.06876	1610.89014	446.14392	151.86195	1613.45898	402.97720	145.37790	1548.22827	434.43048	153.73393	1560.92114	393.91492	147.39932	1614.49414	108.54561	201.00966	1596.76099	125.55714	281.11475	1687.80957	79.27511	240.79477	1479.41565	47.32911	291.35004	1433.07080	65.44348	260.66797	1466.29883	37.73340	185.88580
432	3.59167	1584.77454	1087.01794	347.12555	1407.56775	1046.30969	399.53055	0.00000	0.00000	0.00000	1404.87878	731.95703	481.15195	1366.18188	794.95349	483.10956	1352.86133	752.87274	486.20438	1310.67566	573.24829	452.41980	1289.68152	566.38110	327.66965	1341.42651	474.36505	462.52634	1366.25098	434.02222	463.94113	1394.57446	502.27396	455.12241	1412.73218	458.11877	460.31644	1507.81079	177.65131	408.32410	1474.29224	173.55585	332.00070	1563.97961	180.99902	352.45248	1422.18237	59.59699	448.31161	1348.60022	71.11531	395.32355	1377.17310	54.66475	347.88318	1596.01794	1087.57495	235.07764	1417.47327	1047.66357	148.10419	1468.89551	758.93091	108.21731	1475.43909	712.80231	115.67003	1531.87109	762.94531	108.13579	1528.93176	718.12775	117.05923	1540.09631	540.93121	159.30986	1527.09705	543.73395	297.02661	1608.96655	447.01913	151.83774	1611.53369	403.71191	145.39862	1546.20081	434.93604	153.84653	1558.93591	394.57391	147.81430	1614.33008	109.40165	200.94881	1593.78845	125.53494	279.87442	1687.38391	80.08351	240.71899	1479.47766	47.39631	291.14874	1432.78540	65.13266	260.54449	1466.10754	37.47614	185.78825
433	3.60000	1574.23193	1085.99170	348.69882	1395.88391	1045.25098	399.11551	0.00000	0.00000	0.00000	1389.63782	731.45886	480.36447	1353.48584	795.47839	482.22488	1336.88318	752.60870	485.09018	1295.61658	573.51959	450.24207	1275.14429	567.04816	325.60696	1322.64441	473.44287	460.74460	1345.49451	431.80579	462.27701	1377.62695	499.67465	453.69730	1393.42456	452.94540	458.35672	1472.99329	166.97050	407.31818	1442.19238	166.74016	332.57831	1530.02991	166.06558	352.46552	1381.62012	55.70710	449.21078	1308.81091	70.67565	396.02560	1334.40784	53.02105	349.74500	1585.24817	1086.75391	236.80115	1407.19031	1047.08350	147.74640	1462.23413	758.22455	108.73347	1469.54932	712.27014	116.15609	1525.11145	763.15057	108.35232	1522.82251	718.30988	117.42024	1537.47241	541.26740	159.55196	1524.06396	543.86322	297.12543	1606.69434	447.83575	152.07886	1609.93567	404.62103	145.44855	1544.12537	435.33963	153.99808	1557.13440	395.10388	147.89207	1613.89185	110.04934	201.07771	1593.35583	126.04542	280.02774	1686.80066	80.78735	240.74173	1479.26013	47.30019	291.02716	1432.52734	64.83996	260.50916	1466.06128	37.34801	185.75581
434	3.60833	1561.53687	1083.93506	350.30762	1384.37183	1043.99792	398.93246	1394.90283	768.14325	477.23090	1374.83240	730.48926	479.11935	1337.35815	794.07739	481.62701	1326.02856	753.80682	484.16608	1280.91992	573.25311	448.00052	1260.80115	567.29108	323.20950	1304.16846	471.86673	458.97070	1325.00549	429.51297	460.69760	0.00000	0.00000	0.00000	1374.29016	448.23706	457.16803	1438.56702	157.84335	407.61203	1408.56799	157.77271	332.95514	1495.56604	153.39825	353.03021	1340.90637	52.74686	449.97375	1269.35608	71.13544	396.37457	1296.37903	50.44114	349.53674	1574.48511	1085.61255	238.60403	1397.08643	1046.58508	147.63660	1455.55725	757.25104	109.33154	0.00000	0.00000	0.00000	1519.90698	763.92224	108.07797	1516.81445	718.26105	117.79538	1534.77478	541.43976	159.89388	1520.62671	543.58118	297.13342	1604.58020	448.34158	152.18933	1607.82983	405.24820	145.62607	1541.89661	435.59723	154.37199	1555.16248	395.42731	148.10583	1613.02869	110.43008	201.50177	1592.81433	126.50339	280.49261	1686.80542	81.86317	240.87604	1478.11499	47.97848	290.39597	1432.33069	64.54939	260.49823	1465.96362	37.25768	185.74309
435	3.61667	1550.12500	1081.97742	351.97974	1372.41272	1042.55798	398.67422	0.00000	0.00000	0.00000	1357.91858	727.65515	477.62064	1323.16064	792.91107	480.66293	1311.91699	752.52716	482.79364	1266.71094	572.18353	445.68927	1247.21143	567.08875	320.99249	1285.88989	470.34024	457.14255	1304.66064	426.68179	459.22922	0.00000	0.00000	0.00000	1354.85962	443.00729	456.30722	1403.95752	149.27119	408.12250	1374.07031	150.34660	333.19031	1458.10242	139.59636	352.63104	1299.95801	49.95777	450.25302	1229.79016	72.23515	396.33881	1255.99207	49.64115	349.89005	1563.57703	1084.17615	240.37859	1386.97559	1045.43933	147.59285	1448.99292	755.95795	109.77792	1457.60681	711.70190	116.17515	1513.29675	763.60437	108.42131	1510.92114	717.95740	118.24715	1531.82935	541.32361	160.48892	1517.36865	543.23767	297.40674	1602.11743	448.76001	152.49922	1605.32703	405.54016	145.92119	1539.54150	435.77280	154.79051	1552.83350	395.59695	148.47276	1612.78381	111.20820	202.19040	1592.30713	126.75265	281.15176	1686.40417	82.54704	241.33171	1477.19531	47.39184	290.05103	1433.01709	63.90412	259.67636	1465.92700	37.22193	185.77553
436	3.62500	1538.66467	1079.66211	353.65527	1361.16772	1040.74438	398.56430	0.00000	0.00000	0.00000	1346.69409	726.82544	475.70618	1311.24121	791.43414	479.19995	1296.78186	750.05243	480.26355	1252.65002	570.76648	443.21973	1234.14062	566.35101	318.70093	1268.13892	468.27740	455.39447	1284.74280	423.64658	457.99741	0.00000	0.00000	0.00000	1335.35095	436.88718	454.57907	1368.65479	140.94035	408.52399	1338.52661	143.95737	333.52869	1424.54370	129.79214	354.61374	1258.83142	48.53450	450.67548	1190.32129	74.36666	396.16852	1215.54431	49.75650	350.07339	1552.62256	1082.47375	242.14584	1376.57007	1044.28491	147.39497	1442.64795	754.47327	110.11050	0.00000	0.00000	0.00000	1505.28687	762.24359	109.39273	1505.11829	717.42285	118.77431	1528.81628	541.14355	161.13928	1513.91748	542.64404	297.72235	1599.24316	449.00049	153.03081	1602.81177	405.73251	146.33241	1536.85571	435.73871	155.36961	1550.42261	395.59863	148.95064	1612.23157	111.83582	203.15987	1591.96753	126.90524	282.28989	1686.01208	83.18758	242.14017	1476.88843	47.04698	290.28607	1432.34143	63.28912	260.11270	1465.84229	37.31396	185.91492
